<svg
  fill="#000000"
  viewBox="-51.2 -51.2 614.40 614.40"
  id="icon"
  xmlns="http://www.w3.org/2000/svg"
  stroke="#000000"
  stroke-width="8.192">
  <g id="SVGRepo_bgCarrier" stroke-width="0">
    <path
      transform="translate(-51.2, -51.2), scale(19.2)"
      d="M16,31.942114683134214C19.201057935526688,32.040876497507305,21.299495666936448,28.71736610749266,23.69712899848678,26.59418919305159C25.834873494656748,24.701151711667105,28.357040663751356,23.016472266264444,29.170403570210905,20.279323527297713C29.974595042854094,17.573038721644892,28.660236828244297,14.845553431710465,28.004308400788336,12.09956376092973C27.278516041939252,9.061094566567839,27.456647291041484,5.514969956098775,25.14242579602785,3.416530425097992C22.762048020353394,1.258103138015183,19.167901943580894,0.6765947647638166,16.000000000000004,1.2145575742636403C13.071755773340858,1.7118224893811014,11.048115439794524,4.165816345582991,8.865772837245501,6.1805787166503485C6.956262430166322,7.943459444383482,5.218884203795045,9.780356101494524,4.153929523132877,12.150978379102733C2.9764311595033695,14.772126399159028,1.6032382863111092,17.65644943314704,2.48136424767657,20.392471022128234C3.3602906889064124,23.130986706816483,6.453665092184481,24.261424375868007,8.640381839809594,26.12964537725739C11.076742596206087,28.211149685944918,12.797071866903096,31.843295167804442,16,31.942114683134214"
      fill="#8fcd98"
      strokewidth="0"></path>
  </g>
  <g
    id="SVGRepo_tracerCarrier"
    stroke-linecap="round"
    stroke-linejoin="round"></g>
  <g id="SVGRepo_iconCarrier">
    <title></title>
    <path
      d="M38.2,462a5.47,5.47,0,0,0,2.29.5,5.58,5.58,0,0,0,5.09-3.3A230.47,230.47,0,0,1,77,408.52a51.89,51.89,0,0,0,74.31-24.39A5.59,5.59,0,0,0,141,379.78a40.71,40.71,0,0,1-54.15,21.3A177.56,177.56,0,0,0,103,392a5.59,5.59,0,0,0-6-9.45,164.48,164.48,0,0,1-21.94,11.65,5.62,5.62,0,0,0-2,1.46,241.82,241.82,0,0,0-37.72,59A5.58,5.58,0,0,0,38.2,462Z"></path>
    <path
      d="M127.31,373.5a175.93,175.93,0,0,0,22-24.13A231.08,231.08,0,0,1,320,332.25c-.11,1.49-.17,3-.17,4.46a58.63,58.63,0,0,0,9.07,31.38,5.6,5.6,0,0,0,4.73,2.6,5.59,5.59,0,0,0,4.71-8.58,47.44,47.44,0,0,1-7.34-25.4c0-.32,0-.63,0-.95a646.09,646.09,0,0,0,72.59,41.38A47.56,47.56,0,0,1,363.92,382a5.59,5.59,0,0,0-3.45,10.63,58.81,58.81,0,0,0,52.12-8,232.65,232.65,0,0,1,53.83,74.62,5.58,5.58,0,0,0,5.09,3.3,5.47,5.47,0,0,0,2.29-.5,5.58,5.58,0,0,0,2.8-7.39,243.84,243.84,0,0,0-65-85.86,5.28,5.28,0,0,0-1.16-.76,636.14,636.14,0,0,1-73.91-42,6.33,6.33,0,0,0-1.25-.62A242.37,242.37,0,0,0,143,340.07a5.48,5.48,0,0,0-1.87,1.61,164.86,164.86,0,0,1-21.33,23.56,5.59,5.59,0,1,0,7.52,8.26Z"></path>
    <path
      d="M217.11,405.34a67.31,67.31,0,0,0-28.64,51.26,5.58,5.58,0,0,0,5.24,5.91h.34a5.58,5.58,0,0,0,5.57-5.25,56.19,56.19,0,0,1,23.92-42.8,5.58,5.58,0,0,0-6.43-9.13Z"></path>
    <path
      d="M256,393.05a67.25,67.25,0,0,0-8,.47,5.58,5.58,0,1,0,1.31,11.09,58,58,0,0,1,6.73-.39,56.52,56.52,0,0,1,56.38,53,5.58,5.58,0,0,0,5.57,5.25h.34a5.58,5.58,0,0,0,5.24-5.91A67.71,67.71,0,0,0,256,393.05Z"></path>
    <path
      d="M152.58,312.35a5.58,5.58,0,0,0,5.59-5.58V60.65h214V200.87h-187a5.59,5.59,0,1,0,0,11.18h192.6a5.59,5.59,0,0,0,5.59-5.59V55.06a5.59,5.59,0,0,0-5.59-5.59H152.58A5.59,5.59,0,0,0,147,55.06V306.77A5.58,5.58,0,0,0,152.58,312.35Z"></path>
    <path
      d="M305.42,145.49a5.59,5.59,0,0,0,6.66-4.25,48.13,48.13,0,0,0-85.14-39.73,5.59,5.59,0,1,0,8.86,6.81,37,37,0,0,1,65.38,30.5A5.59,5.59,0,0,0,305.42,145.49Z"></path>
    <path
      d="M210.86,91.41a5.59,5.59,0,1,0,2.91-10.79c-20.72-5.59-32-4.81-35.6,2.44s2.82,16.83,20.17,30c5.5,4.16,11.87,8.49,18.88,12.87a48.15,48.15,0,0,0,81.14,39.75,3,3,0,0,0,.23-.27c6.28,2.24,12.24,4.14,17.75,5.64,9.26,2.52,16.66,3.79,22.36,3.79,7.2,0,11.66-2,13.67-6.12,3.42-6.95-2.18-15.84-17.63-28a5.58,5.58,0,1,0-6.9,8.78c9.88,7.78,13,12.18,13.9,14-7.11,1.56-36.13-4.34-81.8-26.79S191.88,94.9,188.76,88.32C190.94,87.91,196.89,87.64,210.86,91.41Zm75.79,69.44a36.93,36.93,0,0,1-58.47-28.4c8.38,4.84,17.41,9.66,26.83,14.29C265.82,152.05,276.52,156.81,286.65,160.85Z"></path>
  </g>
</svg>
