<svg
  fill="#000000"
  viewBox="-1.9 -1.9 22.80 22.80"
  xmlns="http://www.w3.org/2000/svg"
  class="cf-icon-svg">
  <g id="SVGRepo_bgCarrier" stroke-width="0">
    <path
      transform="translate(-1.9, -1.9), scale(0.7125)"
      d="M16,26.861490447074175C18.529417175613084,27.319588819215973,20.727155745881223,30.511477573885784,23.10962323243936,29.546255297755167C25.387393141727422,28.623449732202197,24.90607457074038,25.084946746427875,25.915676574804543,22.844297361793295C26.73961711273198,21.015693761710438,27.865699651874564,19.414340610208804,28.52794202684065,17.5211675665925C29.321087992521058,15.253776323384796,30.576483358305794,12.988673104925663,30.192707060000092,10.617416196552202C29.79307211042078,8.14817268359671,28.56780447647726,5.499085036653886,26.384628973757877,4.278177037038843C24.17067368472103,3.0400559057746843,21.382455847807865,4.739682918523937,18.88529101812411,4.2939141769913185C16.602602237603236,3.8864315419214157,14.788167917020488,1.4246077158540156,12.499920324072976,1.7996185423234703C10.23061388406826,2.171525186605098,8.41966091008819,4.176852121228462,7.309938073367439,6.190947823117561C6.282702835890531,8.055332341638465,7.6667785107452024,10.586781676481472,6.6331105262143915,12.447607397437272C5.33286102528336,14.7883374492543,1.110459276504022,15.177163744725467,0.838497180247856,17.84093974100419C0.593092535214452,20.244594558400305,3.830497530648401,21.510352289062723,5.532776638864005,23.22500262039218C6.979272425058042,24.68201073797646,8.185244631517714,26.52078949938992,10.124637966779169,27.194567063076214C12.004915489547495,27.847806808367054,14.041344030167458,26.506761650252187,16,26.861490447074175"
      fill="#8fcd98"
      strokewidth="0"></path>
  </g>
  <g
    id="SVGRepo_tracerCarrier"
    stroke-linecap="round"
    stroke-linejoin="round"
    stroke="#CCCCCC"
    stroke-width="0.34199999999999997"></g>
  <g id="SVGRepo_iconCarrier">
    <path
      d="M2.644 15.26a16.9 16.9 0 0 1-.706-.014l-.11-.025a1.51 1.51 0 0 1-1.14-1.185l-.018-.092c-.005-.106-.01-.406-.01-.667V4.434a.477.477 0 0 1 .476-.475H11.77a.476.476 0 0 1 .475.475v1.529h1.591a.506.506 0 0 1 .504.504v7.192a1.6 1.6 0 0 1-1.6 1.6zm0-1.109h8.572a1.598 1.598 0 0 1-.077-.491v-2.174a2.16 2.16 0 0 1-.003-.109v-6.31H1.769v8.21c0 .218.003.43.006.544l.002.008a.401.401 0 0 0 .3.312l.01.002c.133.004.358.008.557.008zM9.91 6.815H2.95v1.109h6.96zm-4 2.383H2.95v3.532h2.96zm4.002.026H7.033v1.109h2.878zm0 2.41H7.033v1.108h2.878zm2.336-4.563v6.589a.492.492 0 0 0 .984 0V7.07z"></path>
  </g>
</svg>
