<svg
  height="200px"
  width="200px"
  version="1.1"
  id="Layer_1"
  xmlns="http://www.w3.org/2000/svg"
  xmlns:xlink="http://www.w3.org/1999/xlink"
  viewBox="0 0 505.251 505.251"
  xml:space="preserve"
  fill="#000000">
  <g id="SVGRepo_bgCarrier" stroke-width="0"></g>
  <g
    id="SVGRepo_tracerCarrier"
    stroke-linecap="round"
    stroke-linejoin="round"></g>
  <g id="SVGRepo_iconCarrier">
    <g transform="translate(2 20)">
      <path
        style="fill: #eae1c1"
        d="M79.144,428.892V258.225h110.933v-51.2h119.467v51.2h110.933v170.667H79.144z M10.877,343.559 h34.133v-85.333H10.877V343.559z M27.944,172.892l17.067,11.947l0,0v73.387H10.877v-73.387l0,0L27.944,172.892z M10.877,428.892 h34.133v-85.333H10.877V428.892z M454.611,428.892h34.133v-85.333h-34.133V428.892z M454.611,343.559h34.133v-85.333h-34.133 V343.559z M488.744,184.839v73.387h-34.133v-73.387l0,0l17.067-11.947L488.744,184.839L488.744,184.839z M335.144,172.892 c0,25.6-8.533,34.133-8.533,34.133h-17.067H190.077h-17.067c0,0-8.533-8.533-8.533-34.133s34.133-59.733,85.333-76.8 C301.011,113.159,335.144,147.292,335.144,172.892z M173.011,258.225h-68.267c8.533-25.6,34.133-34.133,34.133-34.133 S164.477,232.625,173.011,258.225z M394.877,258.225h-68.267c8.533-25.6,34.133-34.133,34.133-34.133 S386.344,232.625,394.877,258.225z"></path>
      <path
        style="fill: #d0faff"
        d="M292.477,292.359v136.533h-85.333V292.359c0-17.067,42.667-34.133,42.667-34.133 S292.477,275.292,292.477,292.359z M173.011,394.759v34.133h-34.133v-34.133c0-8.533,17.067-17.067,17.067-17.067 S173.011,386.225,173.011,394.759z M173.011,309.425v34.133h-34.133v-34.133c0-8.533,17.067-17.067,17.067-17.067 S173.011,300.892,173.011,309.425z M360.744,394.759v34.133h-34.133v-34.133c0-8.533,17.067-17.067,17.067-17.067 S360.744,386.225,360.744,394.759z M360.744,309.425v34.133h-34.133v-34.133c0-8.533,17.067-17.067,17.067-17.067 S360.744,300.892,360.744,309.425z"></path>
    </g>
    <path
      style="fill: #51565f"
      d="M499.277,453.159H4.344c-2.56,0-4.267-1.707-4.267-4.267c0-2.56,1.707-4.267,4.267-4.267h4.267v-76.8 H4.344c-2.56,0-4.267-1.707-4.267-4.267s1.707-4.267,4.267-4.267h51.2c2.56,0,4.267,1.707,4.267,4.267s-1.707,4.267-4.267,4.267 h-4.267v76.8h25.6V261.159c0-2.56,1.707-4.267,4.267-4.267c2.56,0,4.267,1.707,4.267,4.267v12.8h18.773 c7.68-20.48,25.6-29.867,32.427-32.427v-31.573c0-2.56,1.707-4.267,4.267-4.267c2.56,0,4.267,1.707,4.267,4.267v34.133 c0,1.707-0.853,3.413-2.56,4.267c0,0-19.627,6.827-29.013,25.6h75.093v-21.333c0-2.56,1.707-4.267,4.267-4.267 s4.267,1.707,4.267,4.267v25.6c0,2.56-1.707,4.267-4.267,4.267h-85.333l0,0H86.264v162.133h17.067v-38.4 c0-2.56,1.707-4.267,4.267-4.267c2.56,0,4.267,1.707,4.267,4.267v38.4h25.6v-29.867c0-10.24,16.213-19.627,19.627-20.48 c0.853-0.853,2.56-0.853,3.413,0c3.413,1.707,19.627,10.24,19.627,20.48v29.867h25.6V312.359c0-19.627,40.96-35.84,45.227-38.4 c0.853,0,2.56,0,3.413,0c4.267,1.707,45.227,18.773,45.227,38.4v132.267h25.6v-29.867c0-10.24,16.213-19.627,19.627-20.48 c0.853-0.853,2.56-0.853,3.413,0c3.413,1.707,19.627,10.24,19.627,20.48v29.867h25.6v-38.4c0-2.56,1.707-4.267,4.267-4.267 s4.267,1.707,4.267,4.267v38.4h17.067V282.492h-21.333l0,0h-85.333c-2.56,0-4.267-1.707-4.267-4.267v-25.6 c0-2.56,1.707-4.267,4.267-4.267s4.267,1.707,4.267,4.267v21.333h75.093c-9.387-18.773-29.013-25.6-29.013-25.6 c-1.707-0.853-2.56-2.56-2.56-4.267v-34.133c0-2.56,1.707-4.267,4.267-4.267s4.267,1.707,4.267,4.267v31.573 c6.827,3.413,24.747,12.8,32.427,32.427h18.773v-12.8c0-2.56,1.707-4.267,4.267-4.267s4.267,1.707,4.267,4.267v183.467h25.6v-76.8 h-4.267c-2.56,0-4.267-1.707-4.267-4.267s1.707-4.267,4.267-4.267h51.2c2.56,0,4.267,1.707,4.267,4.267s-1.707,4.267-4.267,4.267 h-4.267v76.8h4.267c2.56,0,4.267,1.707,4.267,4.267C505.251,451.452,501.837,453.159,499.277,453.159z M460.877,444.625h25.6v-76.8 h-25.6V444.625z M332.877,444.625h25.6v-29.867c0-3.413-6.827-8.533-12.8-11.947c-5.973,3.413-12.8,8.533-12.8,11.947V444.625z M213.411,444.625h76.8V312.359c0-9.387-22.187-23.04-38.4-29.867c-16.213,6.827-38.4,20.48-38.4,29.867V444.625z M145.144,444.625 h25.6v-29.867c0-3.413-6.827-8.533-12.8-11.947c-5.973,3.413-12.8,8.533-12.8,11.947V444.625z M17.144,444.625h25.6v-76.8h-25.6 V444.625z M396.877,367.825c-2.56,0-4.267-1.707-4.267-4.267v-42.667c0-2.56,1.707-4.267,4.267-4.267s4.267,1.707,4.267,4.267 v42.667C401.144,366.119,399.437,367.825,396.877,367.825z M362.744,367.825h-34.133c-2.56,0-4.267-1.707-4.267-4.267v-34.133 c0-10.24,16.213-19.627,19.627-20.48c0.853-0.853,2.56-0.853,3.413,0c3.413,1.707,19.627,10.24,19.627,20.48v34.133 C367.011,366.119,365.304,367.825,362.744,367.825z M332.877,359.292h25.6v-29.867c0-3.413-6.827-8.533-12.8-11.947 c-5.973,3.413-12.8,8.533-12.8,11.947V359.292z M175.011,367.825h-34.133c-2.56,0-4.267-1.707-4.267-4.267v-34.133 c0-10.24,16.213-19.627,19.627-20.48c0.853-0.853,2.56-0.853,3.413,0c3.413,1.707,19.627,10.24,19.627,20.48v34.133 C179.277,366.119,177.571,367.825,175.011,367.825z M145.144,359.292h25.6v-29.867c0-3.413-6.827-8.533-12.8-11.947 c-5.973,3.413-12.8,8.533-12.8,11.947V359.292z M106.744,367.825c-2.56,0-4.267-1.707-4.267-4.267v-42.667 c0-2.56,1.707-4.267,4.267-4.267s4.267,1.707,4.267,4.267v42.667C111.011,366.119,109.304,367.825,106.744,367.825z M490.744,342.225c-2.56,0-4.267-1.707-4.267-4.267v-55.467h-25.6v55.467c0,2.56-1.707,4.267-4.267,4.267s-4.267-1.707-4.267-4.267 v-55.467h-4.267c-2.56,0-4.267-1.707-4.267-4.267s1.707-4.267,4.267-4.267h51.2c2.56,0,4.267,1.707,4.267,4.267 s-1.707,4.267-4.267,4.267h-4.267v55.467C495.011,340.519,493.304,342.225,490.744,342.225z M47.011,342.225 c-2.56,0-4.267-1.707-4.267-4.267v-55.467h-25.6v55.467c0,2.56-1.707,4.267-4.267,4.267s-4.267-1.707-4.267-4.267v-55.467H4.344 c-2.56,0-4.267-1.707-4.267-4.267s1.707-4.267,4.267-4.267h51.2c2.56,0,4.267,1.707,4.267,4.267s-1.707,4.267-4.267,4.267h-4.267 v55.467C51.277,340.519,49.57,342.225,47.011,342.225z M490.744,256.892c-2.56,0-4.267-1.707-4.267-4.267v-46.08l-12.8-8.533 l-12.8,8.533v46.08c0,2.56-1.707,4.267-4.267,4.267s-4.267-1.707-4.267-4.267v-40.107l-1.707,0.853 c-1.707,1.707-4.267,0.853-5.973-0.853c-1.707-1.707-0.853-4.267,0.853-5.973l23.893-16.213v-14.507c0-2.56,1.707-4.267,4.267-4.267 s4.267,1.707,4.267,4.267v14.507l23.893,16.213c1.707,1.707,2.56,4.267,0.853,5.973c-1.707,1.707-4.267,2.56-5.973,0.853 l-1.707-0.853v40.107C495.011,255.185,493.304,256.892,490.744,256.892z M47.011,256.892c-2.56,0-4.267-1.707-4.267-4.267v-46.08 l-12.8-8.533l-12.8,8.533v46.08c0,2.56-1.707,4.267-4.267,4.267s-4.267-1.707-4.267-4.267v-40.107l-1.707,0.853 c-1.707,1.707-4.267,0.853-5.973-0.853s-0.853-4.267,0.853-5.973l23.893-16.213v-14.507c0-2.56,1.707-4.267,4.267-4.267 s4.267,1.707,4.267,4.267v14.507l23.893,16.213c1.707,1.707,2.56,4.267,0.853,5.973c-1.707,1.707-4.267,2.56-5.973,0.853 l-1.707-0.853v40.107C51.277,255.185,49.57,256.892,47.011,256.892z M328.611,231.292h-153.6c-0.853,0-2.56-0.853-3.413-0.853 c-0.853-0.853-9.387-10.24-9.387-37.547c0-29.013,36.693-63.147,85.333-80.213v-56.32c0-2.56,1.707-4.267,4.267-4.267 s4.267,1.707,4.267,4.267v56.32c48.64,17.067,85.333,51.2,85.333,80.213c0,26.453-8.533,35.84-9.387,37.547 C331.171,230.439,329.464,231.292,328.611,231.292z M176.717,222.759h149.333c1.707-3.413,5.973-11.947,5.973-29.867 c0-22.187-29.867-54.613-81.067-72.533c-51.2,17.067-81.067,50.347-81.067,72.533C170.744,210.812,175.011,219.345,176.717,222.759z "></path>
  </g>
</svg>
